<svg width="16" height="50" viewBox="0 0 16 50" fill="none" xmlns="http://www.w3.org/2000/svg">
<line x1="8.3" y1="3.27835e-08" x2="8.3" y2="11" stroke="#263740" stroke-opacity="0.3" stroke-width="0.6"/>
<path d="M11 34.128H5.4V33.336H9.72L5.4 30.024V29.288H11V30.072H6.688L11 33.392V34.128ZM5.4 26.9804V23.0364H11V23.8204H6.096V26.3004L7.736 26.3564C9.96 26.4284 11.064 26.7724 11.064 27.8764C11.064 28.0364 11.048 28.1884 11 28.3804L10.288 28.3244C10.312 28.2284 10.32 28.1564 10.32 28.0684C10.32 27.3724 9.496 27.1324 7.76 27.0684L5.4 26.9804ZM11 21.2921H5.4V20.5001H9.72L5.4 17.1881L5.4 16.4521H11V17.2361H6.688L11 20.5561V21.2921Z" fill="#263740"/>
<line x1="8.3" y1="39" x2="8.3" y2="50" stroke="#263740" stroke-opacity="0.3" stroke-width="0.6"/>
</svg>
