<svg width="380" height="667" viewBox="0 0 380 667" fill="none" xmlns="http://www.w3.org/2000/svg">
<g clip-path="url(#clip0_1105_4178)">
<path d="M376.238 248.624C364.608 209.873 324.59 190.326 290.045 175.923C255.158 160.491 217.192 148.832 188.119 123.112C158.704 97.0492 163.492 44.2378 196.67 23.662C233.267 1.02859 282.862 6.85841 317.75 30.1777C341.008 44.5808 350.927 70.6435 368.029 90.8764C368.713 68.5859 367.687 46.6384 367.003 24.3479C309.541 -3.08658 237.03 -10.974 179.91 21.2615C130.657 48.353 119.028 126.541 162.466 163.921C211.035 205.072 280.81 209.873 326.643 255.14C351.953 279.831 350.243 325.098 323.564 348.074C309.883 360.077 293.123 366.25 275.68 367.964C271.575 325.098 250.369 282.575 209.325 265.428C159.73 244.509 105.689 268.514 64.9865 298.007C64.6445 283.946 64.3024 269.543 63.2763 255.483C42.0702 263.713 21.2061 273.315 0 282.575C14.3654 293.548 24.2844 308.98 22.9163 327.841C23.2583 424.205 23.9424 520.568 22.5743 616.932C23.9424 636.822 13.3393 652.94 0.342034 666.657C29.4149 667 58.4879 667 87.5608 666.657C80.036 655.683 67.3807 646.424 66.6967 632.021C62.9343 590.526 66.0126 548.346 64.6445 506.851C101.926 529.142 148.443 536 189.487 520.225C239.766 502.736 272.259 451.296 275.338 399.171C276.022 391.969 276.364 384.768 276.022 377.566C290.729 374.823 305.095 370.365 318.092 364.535C361.53 345.674 390.261 294.92 376.238 248.624ZM172.385 281.546C205.905 295.606 223.348 329.213 231.557 363.849C219.244 360.42 207.273 355.619 197.012 349.446C163.15 329.899 129.631 293.205 160.072 277.774C160.072 277.431 159.73 277.431 159.73 277.431C163.834 278.459 168.281 279.831 172.385 281.546ZM202.826 505.137C146.391 544.231 58.1458 489.705 64.9865 422.147C64.9865 383.739 65.3285 345.331 64.9865 307.266C78.6679 296.978 94.7435 287.033 111.845 281.203C100.558 296.978 110.477 322.697 130.657 341.902C156.652 366.936 195.644 379.967 235.32 380.996C236.004 384.768 236.346 388.54 237.03 392.312C240.45 431.406 237.03 479.417 202.826 505.137Z" fill="#263740" fill-opacity="0.05"/>
</g>
<defs>
<clipPath id="clip0_1105_4178">
<rect width="380" height="667" fill="white"/>
</clipPath>
</defs>
</svg>
