<svg width="522" height="1010" viewBox="0 0 522 1010" fill="none" xmlns="http://www.w3.org/2000/svg">
<path d="M515.444 376.478C497.843 317.799 437.275 288.2 384.99 266.39C332.187 243.023 274.725 225.367 230.722 186.421C186.202 146.956 193.45 66.9868 243.664 35.83C299.056 1.55752 374.119 10.3853 426.922 45.6963C462.124 67.5061 477.136 106.971 503.02 137.609C504.056 103.856 502.503 70.6218 501.467 36.8686C414.497 -4.67385 304.75 -16.6173 218.298 32.195C143.753 73.2182 126.152 191.614 191.896 248.216C265.407 310.529 371.013 317.799 440.381 386.344C478.689 423.732 476.101 492.277 435.722 527.069C415.015 545.244 389.649 554.591 363.247 557.187C357.035 492.277 324.939 427.887 262.818 401.923C187.755 370.246 105.962 406.596 44.3586 451.254C43.8409 429.964 43.3232 408.154 41.7702 386.863C9.67424 399.326 -21.904 413.866 -54 427.887C-32.2576 444.504 -17.2449 467.871 -19.3157 496.432C-18.798 642.349 -17.7626 788.267 -19.8333 934.185C-17.7626 964.303 -33.8106 988.709 -53.4823 1009.48C-9.4798 1010 34.5227 1010 78.5253 1009.48C67.1364 992.863 47.9823 978.843 46.947 957.033C41.2525 894.2 45.9116 830.329 43.8409 767.496C100.268 801.249 170.672 811.635 232.793 787.748C308.891 761.264 358.071 683.372 362.73 604.442C363.765 593.537 364.283 582.632 363.765 571.727C386.025 567.573 407.768 560.822 427.439 551.995C493.184 523.434 536.669 446.581 515.444 376.478ZM206.909 426.329C257.641 447.619 284.043 498.509 296.467 550.956C277.831 545.763 259.712 538.493 244.182 529.146C192.932 499.547 142.199 443.984 188.273 420.617C188.273 420.097 187.755 420.097 187.755 420.097C193.967 421.655 200.697 423.732 206.909 426.329ZM252.982 764.899C167.566 824.097 34.0051 741.532 44.3586 639.234C44.3586 581.074 44.8763 522.915 44.3586 465.275C65.0657 449.696 89.3965 434.637 115.28 425.809C98.197 449.696 113.21 488.642 143.753 517.722C183.096 555.629 242.111 575.362 302.162 576.92C303.197 582.632 303.715 588.344 304.75 594.056C309.927 653.254 304.75 725.953 252.982 764.899Z" fill="#263740" fill-opacity="0.05"/>
</svg>
