<svg width="100" height="40" viewBox="0 0 100 40" fill="none" xmlns="http://www.w3.org/2000/svg">
<g clip-path="url(#clip0_1147_1360)">
<path d="M17.9028 0.325659C18.2982 0.0099104 18.8328 0.0977991 19.2994 0.0782682C21.984 0.114075 24.6735 0.0245585 27.3565 0.12384C27.0487 0.470512 26.7943 1.03365 26.2694 1.05644C25.1871 1.08085 24.1032 1.05644 23.0291 1.05644C22.6785 1.35297 22.3795 1.7061 22.1444 2.10133C20.8807 4.25461 20.0042 6.61132 18.7324 8.75971C18.3516 9.41074 17.6614 9.78345 17.0296 10.1545C17.7408 10.1073 18.4537 10.0732 19.1666 10.0829C18.9705 10.397 18.8101 10.7584 18.5007 10.9797C17.595 11.0709 16.6748 11.0172 15.7642 10.9944C16.2227 10.415 16.8983 10.0308 17.2726 9.37819C18.5687 7.19562 19.5036 4.821 20.756 2.60588C21.1578 1.86534 21.8901 1.40474 22.6289 1.05318C21.1237 1.09224 19.617 1.03202 18.1135 1.08085C17.5464 1.08085 17.1543 1.53657 16.6958 1.79861C17.0227 1.24985 17.4296 0.753367 17.9028 0.325659Z" fill="white"/>
<path d="M24.4354 4.43381C25.8838 1.75321 28.839 -0.357749 31.9789 0.0507707C32.6367 0.114246 32.149 0.848279 31.7958 1.0029C30.814 1.50582 29.7576 0.776666 28.7564 0.714818C27.8102 1.00615 27.0682 1.72717 26.5562 2.55723C25.6667 3.996 24.9927 5.55195 24.1356 7.01025C24.0271 7.19254 24.0644 7.54409 24.3479 7.33576C24.9765 6.48129 25.772 5.76679 26.5724 5.07996C27.1589 4.63237 27.7891 4.12946 28.549 4.06761C29.1258 4.05784 29.3591 4.75281 29.1711 5.22155C28.6754 6.74333 27.6368 8.00307 27.005 9.46137C26.9029 9.74131 26.7052 10.1417 27.0471 10.3403C27.6871 10.4086 28.1132 9.83245 28.6251 9.54763C28.3659 10.0994 27.815 10.4168 27.329 10.7504C26.9272 10.9913 26.3893 11.3119 25.947 10.9799C25.5614 10.6853 25.6327 10.1303 25.7672 9.72341C26.2694 8.2586 27.2982 7.04769 27.9236 5.63496C28.0354 5.38268 28.1618 4.89441 27.7859 4.79676C27.1168 4.81303 26.6048 5.32897 26.1187 5.73098C24.5618 7.17301 23.1247 8.80383 22.2093 10.739C22.0003 11.2273 21.3457 10.9343 20.9391 10.9848C22.0343 8.77128 23.2721 6.62126 24.4354 4.43381Z" fill="white"/>
<path d="M33.1583 4.49019C33.821 4.16467 34.6165 3.90752 35.3359 4.20048C35.7603 4.36324 35.8413 4.91173 35.6793 5.29095C35.4266 5.88013 34.9097 6.30004 34.435 6.70531C33.2329 7.65743 31.9303 8.46959 30.6422 9.29477C30.7913 9.81722 31.1558 10.3397 31.7569 10.3315C32.7047 10.4682 33.4224 9.76025 34.1872 9.32895C33.7189 10.0011 32.985 10.4194 32.277 10.7938C31.569 11.1681 30.5985 11.326 29.952 10.7368C29.2586 10.0858 29.419 9.00832 29.722 8.20592C30.4118 6.60973 31.6244 5.29858 33.1583 4.49019ZM32.8554 4.88243C31.4637 5.77271 30.7492 7.45724 30.6325 9.06691C31.7666 8.35241 32.9137 7.64279 33.8728 6.70042C34.286 6.26586 34.7429 5.65553 34.529 5.02566C34.2082 4.4023 33.3479 4.59761 32.8554 4.88243Z" fill="white"/>
<path d="M2.79317 12.9121C5.91361 11.1331 9.88302 11.5563 13.0229 13.0732C13.0586 14.2874 13.0083 15.5145 13.0829 16.7206C12.647 15.7082 11.6101 14.1799 10.3415 13.3971C8.44269 12.1308 5.72567 11.7988 3.72639 13.0406C1.91504 14.1718 1.65905 17.0656 3.26302 18.4881C4.86698 19.9106 6.92946 20.5291 8.82829 21.3819C10.7239 22.1762 12.903 23.2341 13.5446 25.3662C14.2996 27.915 12.7345 30.6851 10.3772 31.7137C7.05259 33.2322 3.09938 32.2866 0.0874891 30.4719C0.0437445 28.9892 0.0712874 27.5065 0 26.0237C0.696672 27.5097 1.8875 29.816 3.73935 30.8772C5.78886 32.0913 8.74242 32.464 10.6575 30.8007C12.1253 29.5474 12.2096 27.0573 10.8292 25.7194C8.3228 23.2504 4.50083 22.9769 1.84699 20.7244C-0.542756 18.6769 0.10045 14.4045 2.79317 12.9121Z" fill="white"/>
<path d="M90.684 18.1067C93.4513 17.0064 94.9418 13.9971 94.9418 13.9971C94.9418 13.9971 94.9807 16.4986 94.9807 17.7405L99.569 17.8088C99.569 17.8088 99.569 18.0627 99.569 18.1343C98.6634 18.1734 97.3219 18.1799 97.3219 18.1799C97.3219 18.1799 96.0257 18.1636 94.9856 18.1636C94.9856 21.5067 94.9775 24.8253 94.9856 28.1716C94.9694 29.1904 95.2059 30.4925 96.2817 30.8896C97.654 31.3779 98.8999 30.3932 99.8299 29.498C99.8769 29.5989 99.9643 29.7991 100.008 29.9C98.9987 30.901 97.9246 31.9557 96.5215 32.356C95.4198 32.6653 94.0442 32.4163 93.3978 31.3795C92.719 30.302 92.7109 28.9756 92.6979 27.7451C92.7076 24.547 92.6979 21.3472 92.7076 18.1425C92.0271 18.1468 91.3526 18.1349 90.684 18.1067Z" fill="white"/>
<path d="M30.2971 18.9567C31.462 18.4277 32.6269 17.8906 33.8242 17.4463C33.9036 18.693 33.8842 19.943 33.8485 21.1897C35.0134 18.4603 38.2489 16.6878 41.0988 17.902C41.7566 18.348 41.0988 19.6158 39.8577 19.5638C38.5697 19.5507 38.3882 17.5781 35.7879 19.1731C33.9247 20.8333 33.6817 23.4048 33.8761 25.7469C34.0835 27.9034 33.1616 30.68 35.2127 32.1839C33.5612 32.172 31.9092 32.172 30.2566 32.1839C31.9853 31.0023 31.5528 28.766 31.5981 26.9757C31.5414 24.8387 31.7051 22.6936 31.5106 20.5615C31.4523 19.8274 31.1072 19.2692 30.2971 18.9567Z" fill="white"/>
<path d="M74.1842 18.9612C75.3454 18.4026 76.5352 17.906 77.7486 17.4736C77.7616 18.3639 77.7616 19.264 77.7567 20.151C79.884 18.5234 82.588 16.9772 85.3504 17.7308C87.0257 18.1035 88.1387 19.7181 88.291 21.3782C88.5859 24.3078 88.2311 27.2651 88.4822 30.1996C88.4498 31.0687 89.2081 31.5912 89.7103 32.1836C88.0901 32.1717 86.47 32.1717 84.8498 32.1836C85.3083 31.5944 85.9839 31.0736 86.0098 30.2598C86.2253 27.8429 86.0941 25.4015 86.1022 22.9764C86.0892 21.3489 85.5756 19.3958 83.8826 18.7968C81.6727 17.9228 79.4465 19.3128 77.7583 20.6555C77.8231 23.8391 77.6595 27.0291 77.8426 30.2028C77.8669 31.0606 78.5765 31.6058 79.1031 32.1836C77.4473 32.1717 75.7941 32.1717 74.1437 32.1836C75.8757 30.9971 75.4399 28.7657 75.4852 26.9526C75.4318 24.8368 75.5873 22.6965 75.401 20.5758C75.3841 20.2147 75.2589 19.8673 75.0417 19.5791C74.8245 19.2909 74.5256 19.0755 74.1842 18.9612Z" fill="white"/>
<path d="M18.6967 18.8802C21.2064 17.1355 25.0251 16.9548 27.3112 19.1797C28.2736 20.0863 28.6721 21.3932 28.8358 22.6708C25.0689 22.6839 21.302 22.6708 17.5367 22.6708C17.3844 24.663 17.5999 26.8146 18.8847 28.4308C20.5048 30.5466 23.6042 31.1472 26.0134 30.1414C27.2156 29.7052 28.0208 28.6424 29.1225 28.0418C28.1642 29.7366 26.7004 31.0864 24.9376 31.9008C21.7832 33.0922 18.0714 31.9317 16.3831 29.1339C14.3806 25.7827 15.4175 21.0693 18.6967 18.8802ZM17.6598 22.2477C20.6166 22.2395 23.5686 22.2591 26.5222 22.2395C26.0361 19.9512 24.0644 17.7784 21.5661 18.1071C19.3707 18.2292 18.0584 20.2832 17.6598 22.2477Z" fill="white"/>
<path d="M42.5294 18.9371C43.6814 18.4277 44.8349 17.9069 45.9998 17.4219C46.0565 18.1999 46.0808 18.9811 46.0922 19.7591C48.3069 18.1478 51.267 16.8408 53.9759 17.9785C56.7577 19.165 57.874 22.4918 57.5986 25.3302C57.4188 28.1752 55.6544 31.0056 52.9001 31.9593C50.6578 32.8333 48.1093 32.4606 46.0695 31.2334C46.1489 33.5234 45.9707 35.8199 46.1813 38.1001C46.2218 38.8895 46.9039 39.394 47.3154 39.9914C45.7244 39.9914 44.1318 40.0044 42.5408 39.9914C43.2504 39.2378 43.8369 38.3443 43.7607 37.257C43.8207 31.9788 43.7964 26.6958 43.7737 21.4176C43.8661 20.3922 43.5598 19.2496 42.5294 18.9371ZM46.076 20.2831C46.0922 22.3794 46.076 24.4806 46.076 26.5802C45.6936 30.2927 50.5282 33.2825 53.613 31.1374C55.4956 29.7344 55.6755 27.0929 55.4648 24.9364C55.2008 22.5878 54.3032 19.8779 51.9572 18.8883C49.9222 17.9752 47.7123 19.0429 46.076 20.2831Z" fill="white"/>
<path d="M62.3635 19.0296C64.8812 17.1367 68.8442 16.8877 71.2048 19.1728C72.1623 20.0826 72.5608 21.3895 72.7212 22.6639C68.9592 22.6769 65.1923 22.6639 61.4254 22.6639C61.2731 24.6479 61.4854 26.7833 62.754 28.3946C64.3741 30.5348 67.4816 31.1484 69.8957 30.1393C71.0962 29.7015 71.9031 28.6355 73.008 28.0349C72.0547 29.7281 70.5983 31.0797 68.8426 31.9004C65.7108 33.095 62.3084 31.9915 60.617 29.1986C58.6582 25.9191 59.2512 21.2935 62.3635 19.0296ZM61.5453 22.2473C64.4973 22.2473 67.4508 22.2587 70.4028 22.2391C69.9167 19.9508 67.945 17.7747 65.4434 18.1067C63.2611 18.2288 61.9439 20.2828 61.5453 22.2473Z" fill="white"/>
</g>
<defs>
<clipPath id="clip0_1147_1360">
<rect width="100" height="40" fill="white"/>
</clipPath>
</defs>
</svg>
